<svg width="32" height="32" xmlns="http://www.w3.org/2000/svg">

 <g>
  <title>background</title>
  <rect fill="none" id="canvas_background" height="402" width="582" y="-1" x="-1"/>
 </g>
 <g>
  <title>Layer 1</title>
  <path id="svg_1" fill="#30a599" d="m20.925,21.379l2.454,0c0,-7.035 -5.723,-12.762 -12.757,-12.762l0,2.447c5.679,-0.001 10.303,4.628 10.303,10.315zm-8.605,0.004c0.941,0 1.701,-0.756 1.701,-1.693c0,-0.932 -0.76,-1.696 -1.701,-1.696c-0.937,0 -1.699,0.764 -1.699,1.696c0,0.937 0.762,1.693 1.699,1.693zm4.268,-0.003l0,0l2.457,0c0,-4.646 -3.78,-8.425 -8.424,-8.425l0,2.445c1.593,0 3.091,0.623 4.218,1.751c1.127,1.126 1.749,2.63 1.749,4.229z"/>
  <path id="svg_7" fill="#30a599" d="m16,1.095694c8.271,0 15,6.729 15,15s-6.729,15 -15,15s-15,-6.729 -15,-15s6.729,-15 15,-15m0,-1c-8.836,0 -16,7.163 -16,16s7.164,16 16,16s16,-7.163 16,-16s-7.164,-16 -16,-16l0,0z"/>
 </g>
</svg>