<svg width="32" height="32" xmlns="http://www.w3.org/2000/svg">

 <g>
  <title>background</title>
  <rect fill="none" id="canvas_background" height="402" width="582" y="-1" x="-1"/>
 </g>
 <g>
  <title>Layer 1</title>
  <path id="svg_1" fill="#30a599" d="m18.014,9.611846c-1.439,0.523 -2.348,1.874 -2.244,3.351l0.035,0.57l-0.576,-0.07c-2.094,-0.268 -3.925,-1.175 -5.479,-2.7l-0.76,-0.756l-0.196,0.559c-0.414,1.245 -0.149,2.56 0.714,3.445c0.46,0.489 0.356,0.559 -0.437,0.268c-0.276,-0.093 -0.518,-0.163 -0.541,-0.128c-0.08,0.082 0.196,1.14 0.414,1.559c0.299,0.582 0.909,1.152 1.577,1.49l0.564,0.268l-0.667,0.012c-0.644,0 -0.667,0.012 -0.598,0.257c0.23,0.756 1.139,1.559 2.152,1.909l0.714,0.244l-0.621,0.372c-0.921,0.536 -2.003,0.838 -3.085,0.861c-0.519,0.012 -0.944,0.058 -0.944,0.093c0,0.116 1.405,0.767 2.221,1.024c2.451,0.756 5.364,0.43 7.551,-0.861c1.554,-0.92 3.107,-2.746 3.833,-4.516c0.392,-0.942 0.783,-2.665 0.783,-3.49c0,-0.536 0.035,-0.605 0.679,-1.245c0.38,-0.372 0.737,-0.779 0.806,-0.896c0.115,-0.221 0.103,-0.221 -0.483,-0.024c-0.978,0.349 -1.117,0.303 -0.633,-0.221c0.356,-0.372 0.783,-1.047 0.783,-1.245c0,-0.035 -0.172,0.023 -0.369,0.128c-0.207,0.116 -0.667,0.291 -1.013,0.395l-0.621,0.198l-0.564,-0.385c-0.311,-0.209 -0.748,-0.442 -0.978,-0.512c-0.589,-0.163 -1.487,-0.14 -2.017,0.046z"/>
  <path id="svg_7" fill="#30a599" d="m16,1c8.271,0 15,6.729 15,15s-6.729,15 -15,15s-15,-6.729 -15,-15s6.729,-15 15,-15m0,-1c-8.837,0 -16,7.164 -16,16s7.163,16 16,16s16,-7.164 16,-16s-7.163,-16 -16,-16l0,0z"/>
 </g>
</svg>