<svg width="32" height="32" xmlns="http://www.w3.org/2000/svg">

 <g>
  <title>background</title>
  <rect fill="none" id="canvas_background" height="402" width="582" y="-1" x="-1"/>
 </g>
 <g>
  <title>Layer 1</title>
  <path id="Cat_4_" fill="#30a599" d="m18.52,24.493l-2.263,0l-2.265,0c0,0 0.006,-1.344 0,-2.265c-3.099,0.667 -3.964,-1.699 -3.964,-1.699c-0.566,-1.132 -1.132,-1.699 -1.132,-1.699c-1.132,-0.673 0,-0.566 0,-0.566c1.132,0 1.699,1.132 1.699,1.132c0.994,1.687 2.762,1.416 3.397,1.132c0,-0.566 0.248,-1.422 0.566,-1.699c-2.473,-0.279 -4.532,-1.699 -4.532,-4.53s0.568,-3.397 1.135,-3.964c-0.114,-0.279 -0.588,-1.311 0.018,-2.831c0,0 1.113,0 2.245,1.699c0.561,-0.561 2.265,-0.566 2.832,-0.566c0.565,0 2.269,0.005 2.83,0.566c1.132,-1.699 2.248,-1.699 2.248,-1.699c0.605,1.52 0.132,2.552 0.017,2.831c0.566,0.566 1.132,1.132 1.132,3.964s-2.056,4.251 -4.53,4.53c0.319,0.276 0.566,1.251 0.566,1.699l0.001,3.965l0,0z"/>
  <path id="svg_6" fill="#30a599" d="m16.047847,1.047847c8.271,0 15,6.729 15,15s-6.729,15 -15,15s-15,-6.729 -15,-15s6.729,-15 15,-15m0,-1c-8.837,0 -16,7.164 -16,16s7.163,16 16,16s16,-7.163 16,-16s-7.164,-16 -16,-16l0,0z"/>
 </g>
</svg>